<svg xmlns="http://www.w3.org/2000/svg" xmlns:xlink="http://www.w3.org/1999/xlink" viewBox="0 0 33.5 24.54"><defs><style>.cls-1{isolation:isolate;}.cls-2{fill:#e83434;}.cls-3{fill:#fff915;}.cls-4{mix-blend-mode:multiply;}.cls-4,.cls-5{fill:url(#linear-gradient);}.cls-5{opacity:0.25;mix-blend-mode:overlay;}</style><linearGradient id="linear-gradient" y1="12.23" x2="33.24" y2="12.23" gradientUnits="userSpaceOnUse"><stop offset="0" stop-color="#fff"/><stop offset="0.13" stop-color="#f7f7f7"/><stop offset="0.34" stop-color="#e0e0e1"/><stop offset="0.54" stop-color="#c4c5c6"/><stop offset="0.57" stop-color="#c1c2c3"/><stop offset="0.69" stop-color="#bebfc0"/><stop offset="0.91" stop-color="#fff"/></linearGradient></defs><title>es</title><g class="cls-1"><g id="Calque_2" data-name="Calque 2"><g id="Capa_1" data-name="Capa 1"><path class="cls-2" d="M33.48,22.73C22.4,16.5,11.33,29,.25,22.74V1.88c11.08,6.25,22.15-6.24,33.23,0Z"/><path class="cls-3" d="M.25,17.05c11.08,6.26,22.17-6.26,33.25,0V7.45C22.42,1.19,11.33,13.7.25,7.45Z"/><path class="cls-4" d="M33.24,8.66v7h0v7c-11.08-6.23-22.16,6.26-33.23,0V1.8c11.07,6.26,22.15-6.24,33.23,0V8.65Z"/><path class="cls-5" d="M33.24,8.66v7h0v7c-11.08-6.23-22.16,6.26-33.23,0V1.8c11.07,6.26,22.15-6.24,33.23,0V8.65Z"/></g></g></g></svg>