<svg xmlns="http://www.w3.org/2000/svg" xmlns:xlink="http://www.w3.org/1999/xlink" viewBox="0 0 34.31 24.85"><defs><style>.cls-1{fill:none;}.cls-2{isolation:isolate;}.cls-3{fill:#db2e2e;}.cls-4{fill:#fff;}.cls-5{fill:#2f4694;}.cls-6{mix-blend-mode:multiply;}.cls-6,.cls-7{fill:url(#linear-gradient);}.cls-7{opacity:0.25;mix-blend-mode:overlay;}.cls-8{clip-path:url(#clip-path);}.cls-9{fill:#fcf5fa;}.cls-10{fill:#e6302e;}.cls-11{fill:#cd132d;}</style><linearGradient id="linear-gradient" x1="0.12" y1="12.32" x2="34.25" y2="12.32" gradientUnits="userSpaceOnUse"><stop offset="0" stop-color="#fff"/><stop offset="0.13" stop-color="#f7f7f7"/><stop offset="0.34" stop-color="#e0e1e1"/><stop offset="0.54" stop-color="#c4c6c7"/><stop offset="0.58" stop-color="#c1c2c3"/><stop offset="0.69" stop-color="#bebfc0"/><stop offset="0.91" stop-color="#fff"/></linearGradient><clipPath id="clip-path"><path class="cls-1" d="M34.3,8.81v7.12h0V23C22.87,16.68,11.44,29.36,0,23,6,19.75,12.2,16.15,18.55,12.2Q26.89,7,34.29,1.83Z"/></clipPath></defs><title>us_uk</title><g class="cls-2"><g id="Calque_2" data-name="Calque 2"><g id="Calque_1-2" data-name="Calque 1"><path class="cls-3" d="M34.3,10C22.87,3.63,11.45,16.34,0,10V8.35C11.45,14.71,22.87,2,34.3,8.35Z"/><path class="cls-3" d="M34.3,6.73C22.87.37,11.45,13.08,0,6.73V5.09c11.42,6.36,22.84-6.35,34.27,0Z"/><path class="cls-3" d="M34.3,3.47C22.87-2.89,11.45,9.82,0,3.47V1.83c11.42,6.36,22.84-6.35,34.27,0Z"/><path class="cls-3" d="M34.3,13.25C22.87,6.89,11.45,19.6,0,13.25V11.61c11.42,6.36,22.84-6.35,34.27,0Z"/><path class="cls-3" d="M34.3,16.5C22.87,10.15,11.45,22.86,0,16.5V14.87c11.42,6.36,22.84-6.35,34.27,0Z"/><path class="cls-3" d="M34.3,19.76c-11.43-6.35-22.85,6.36-34.27,0V18.13c11.42,6.36,22.84-6.35,34.27,0Z"/><path class="cls-3" d="M34.3,23c-5.72-3.18-11.43-1.59-17.14,0C12.81,24.23,6,26.32.09,23.05L0,23V21.39a15.62,15.62,0,0,0,1.65.79c5.88,2.37,11.54.18,15.48-.79a37.57,37.57,0,0,1,17.14,0Z"/><path class="cls-4" d="M34.3,8.36C22.87,2,11.45,14.71,0,8.36V6.72c11.42,6.36,22.84-6.35,34.27,0Z"/><path class="cls-4" d="M34.3,5.1C22.87-1.26,11.45,11.45,0,5.1V3.47c11.42,6.35,22.84-6.36,34.27,0Z"/><path class="cls-4" d="M34.3,11.62C22.87,5.26,11.45,18,0,11.62V10c11.42,6.35,22.84-6.36,34.27,0Z"/><path class="cls-4" d="M34.3,14.87C22.87,8.52,11.45,21.23,0,14.87V13.24c11.42,6.36,22.84-6.36,34.27,0Z"/><path class="cls-4" d="M34.3,18.13c-11.43-6.35-22.85,6.36-34.27,0V16.5c11.42,6.36,22.84-6.35,34.27,0Z"/><path class="cls-4" d="M34.3,21.39C22.87,15,11.45,27.75,0,21.39V19.76c11.42,6.36,22.84-6.35,34.27,0Z"/><path class="cls-5" d="M12.84,3C8.57,4,4.3,4.26,0,1.89v9.86c4.27,2.38,8.54,2.09,12.81,1.13Z"/><path class="cls-4" d="M10.74,5.38l.13.36-.32-.18h0l-.32.28c0-.13.09-.26.13-.4h0L10,5.26l.4-.06c0-.13.07-.26.11-.4l.12.37h0l.41-.07-.33.28Z"/><path class="cls-4" d="M10.74,7.38l.13.36a3.37,3.37,0,0,0-.32-.19h0l-.32.29c0-.14.09-.27.13-.41h0L10,7.25l.4,0c0-.14.07-.27.11-.4l.12.36h0l.41-.07-.33.28h0Z"/><path class="cls-4" d="M10.74,9.37l.13.36-.32-.19h0l-.32.29.13-.4h0L10,9.25l.4-.06c0-.13.07-.27.11-.4l.12.36h0l.41-.06-.33.28Z"/><path class="cls-4" d="M10.74,11.36l.13.36-.32-.19h0l-.32.28.13-.4h0L10,11.24l.4-.06c0-.13.07-.26.11-.4l.12.37h0l.41-.07-.33.28Z"/><path class="cls-4" d="M8.62,5.63,8.75,6a3.62,3.62,0,0,0-.32-.22h0l-.32.26.13-.39h0l-.33-.21h.4c0-.14.07-.27.11-.4,0,.13.08.25.13.38h0l.4,0-.33.25Z"/><path class="cls-4" d="M8.62,7.63c0,.12.09.24.13.37l-.32-.22h0L8.11,8l.13-.39h0l-.33-.21.4,0c0-.13.07-.26.11-.39,0,.12.08.25.13.37h0l.4,0-.33.25h0Z"/><path class="cls-4" d="M8.62,9.62l.13.37-.32-.22h0L8.11,10l.13-.39h0l-.33-.21.4,0c0-.13.07-.26.11-.39,0,.13.08.25.13.38h0l.4,0-.33.25Z"/><path class="cls-4" d="M8.62,11.61c0,.13.09.25.13.37l-.32-.21h0L8.11,12c0-.12.09-.25.13-.38h0l-.33-.21h.4c0-.14.07-.27.11-.4,0,.13.08.25.13.38h0l.4,0-.33.25Z"/><path class="cls-4" d="M6.5,5.66c0,.13.09.26.14.39L6.31,5.8h0L6,6c0-.13.09-.25.13-.38h0l-.33-.25.4,0L6.3,5l.12.39h0l.4,0-.33.21h0Z"/><path class="cls-4" d="M6.5,7.66c0,.13.09.26.14.39l-.33-.26h0L6,8c0-.13.09-.25.13-.37h0l-.33-.25.4,0c0-.12.07-.25.11-.37l.12.39h.41l-.33.22h0Z"/><path class="cls-4" d="M6.5,9.65c0,.13.09.26.14.39l-.33-.26h0L6,10l.13-.37h0l-.33-.25.4,0L6.3,9l.12.39h0l.4,0-.33.21h0Z"/><path class="cls-4" d="M6.5,11.64c0,.13.09.26.14.39l-.33-.25h0L6,12c0-.12.09-.24.13-.37h0l-.33-.25.4,0L6.3,11l.12.39h0l.4,0-.33.21h0Z"/><path class="cls-4" d="M4.41,5.43c0,.14.1.27.14.41l-.32-.3h0l-.33.17C4,5.59,4,5.47,4,5.36H4l-.34-.3.41.09c0-.12.07-.24.11-.36l.12.41h0l.41.07-.34.17Z"/><path class="cls-4" d="M4.41,7.42c0,.14.1.27.14.41l-.32-.3h0L3.9,7.7,4,7.35H4l-.34-.3.41.09c0-.12.07-.25.11-.37l.12.41h0l.41.07-.34.17Z"/><path class="cls-4" d="M4.41,9.42c0,.13.1.27.14.4l-.32-.3h0l-.33.17C4,9.58,4,9.46,4,9.34H4L3.7,9l.41.09c0-.12.07-.24.11-.36l.12.41h0l.41.07-.34.16h0Z"/><path class="cls-4" d="M4.41,11.41c0,.14.1.27.14.41l-.32-.3h0l-.33.17c.05-.12.09-.24.14-.35H4L3.7,11l.41.09c0-.12.07-.24.11-.36l.12.41h0l.41.07-.34.17Z"/><path class="cls-4" d="M2.33,4.88l.13.43c-.1-.12-.21-.24-.32-.35h0l-.32.12L2,4.74H2l-.33-.36.4.16c0-.11.07-.23.11-.34l.12.43h0l.41.13-.33.12Z"/><path class="cls-4" d="M2.33,6.87c0,.15.09.29.13.43L2.14,7h0l-.32.12L2,6.74H2l-.33-.36.4.15c0-.11.07-.22.11-.34l.12.43h0l.41.14-.33.11Z"/><path class="cls-4" d="M2.33,8.87c0,.14.09.28.13.42l-.32-.35h0l-.32.12L2,8.73H2l-.33-.36.4.16.11-.35.12.43h0l.41.14-.33.11h0Z"/><path class="cls-4" d="M2.33,10.86l.13.43c-.1-.12-.21-.24-.32-.35h0l-.32.11L2,10.72H2l-.33-.36.4.16c0-.11.07-.23.11-.34l.12.43h0l.41.13-.33.12Z"/><path class="cls-4" d="M11.77,6.2c0,.11.09.23.13.35l-.32-.18h0l-.33.3c.05-.13.09-.27.14-.4h0l-.33-.16.4-.07c0-.14.07-.27.11-.41l.12.36h0l.41-.08c-.11.1-.22.2-.34.29h0Z"/><path class="cls-4" d="M11.77,8.19c0,.12.09.24.13.35l-.32-.17h0l-.33.3.14-.41h0l-.33-.17.4-.07c0-.14.07-.27.11-.41l.12.37h0l.41-.09-.34.3h0Z"/><path class="cls-4" d="M11.77,10.18l.13.36-.32-.18h0l-.33.3c.05-.13.09-.27.14-.4h0l-.33-.16.4-.07c0-.14.07-.28.11-.41l.12.36h0l.41-.08c-.11.1-.22.2-.34.29h0Z"/><path class="cls-4" d="M11.77,12.18c0,.12.09.24.13.35l-.32-.17h0l-.33.3.14-.41h0l-.33-.17.4-.07c0-.13.07-.27.11-.4l.12.36h0l.41-.08-.34.29h0Z"/><path class="cls-4" d="M11.77,4.21l.13.36-.32-.18h0l-.33.3.14-.41h0l-.33-.17.4-.07c0-.13.07-.27.11-.4l.12.36h0l.41-.08-.34.29h0Z"/><path class="cls-4" d="M9.69,6.53c.05.12.1.24.14.36l-.33-.2h0L9.18,7l.14-.39h0L9,6.37l.41,0c0-.13.07-.26.11-.39l.12.37h0L10,6.25l-.34.27h0Z"/><path class="cls-4" d="M9.69,8.52c.05.12.1.24.14.36l-.33-.2h0L9.18,9c.05-.14.09-.27.14-.4h0L9,8.36l.41,0c0-.14.07-.27.11-.4l.12.37h0L10,8.25l-.34.27Z"/><path class="cls-4" d="M9.69,10.51c.05.13.1.25.14.37l-.33-.2h0L9.18,11l.14-.39h0L9,10.36l.41,0c0-.13.07-.26.11-.39l.12.36h0l.41-.06-.34.27Z"/><path class="cls-4" d="M9.69,12.51c.05.12.1.24.14.37l-.33-.2h0L9.18,13c.05-.13.09-.26.14-.4h0L9,12.36l.41,0c0-.13.07-.27.11-.4l.12.37h0l.41,0-.34.27Z"/><path class="cls-4" d="M9.69,4.54c.05.12.1.24.14.37l-.33-.2h0L9.18,5c.05-.13.09-.26.14-.4h0L9,4.39l.41,0c0-.13.07-.27.11-.4l.12.37h0L10,4.27l-.34.27Z"/><path class="cls-4" d="M7.54,6.68l.13.37-.32-.23h0L7,7.06l.13-.38h0l-.33-.23h.4c0-.13.07-.26.11-.38l.12.38h.41l-.33.23h0Z"/><path class="cls-4" d="M7.54,8.67c0,.13.09.25.13.38l-.32-.24h0L7,9.05c0-.13.09-.25.13-.38h0l-.33-.23h.4l.11-.38.12.38h.41l-.33.24Z"/><path class="cls-4" d="M7.54,10.66c0,.13.09.26.13.38l-.32-.23h0L7,11.05l.13-.38h0l-.33-.23h.4c0-.13.07-.26.11-.39l.12.39h.41l-.33.23Z"/><path class="cls-4" d="M7.54,12.66c0,.13.09.25.13.38l-.32-.23h0L7,13l.13-.38h0l-.33-.23h.4c0-.13.07-.26.11-.39l.12.38h.41l-.33.24Z"/><path class="cls-4" d="M7.54,4.69c0,.13.09.25.13.38l-.32-.24h0L7,5.07l.13-.38h0l-.33-.23h.4l.11-.38.12.38h.41l-.33.24Z"/><path class="cls-4" d="M5.43,6.58,5.57,7,5.24,6.7h0l-.32.19.13-.36h0l-.33-.28.4.06c0-.12.08-.25.11-.37l.13.4h0l.4,0-.33.19h0Z"/><path class="cls-4" d="M5.43,8.57c.05.13.09.26.14.4l-.33-.28h0l-.32.19.13-.36h0l-.33-.28.4.06c0-.12.08-.24.11-.37,0,.14.09.27.13.4h0l.4.05-.33.19Z"/><path class="cls-4" d="M5.43,10.57l.14.39-.33-.28h0l-.32.2.13-.36h0l-.33-.28.4.06c0-.12.08-.25.11-.37l.13.4h0l.4,0-.33.19h0Z"/><path class="cls-4" d="M5.43,12.56c.05.13.09.27.14.4l-.33-.28h0l-.32.2.13-.37h0l-.33-.27.4.06c0-.13.08-.25.11-.37,0,.13.09.26.13.39h0l.4,0-.33.19Z"/><path class="cls-4" d="M5.43,4.59c.05.13.09.27.14.4l-.33-.28h0l-.32.2.13-.37h0l-.33-.27.4.05c0-.12.08-.24.11-.36,0,.13.09.26.13.39h0l.4.05-.33.19Z"/><path class="cls-4" d="M3.37,6.19c0,.14.09.28.13.42l-.32-.33h0l-.33.15c0-.11.09-.23.14-.34H3l-.33-.32.4.12c0-.12.07-.24.11-.35l.12.41h0l.41.1-.33.14h0Z"/><path class="cls-4" d="M3.37,8.19l.13.41-.32-.32h0l-.33.14c0-.11.09-.22.14-.34H3l-.33-.33.4.12.11-.35.12.42h0L3.7,8l-.33.14h0Z"/><path class="cls-4" d="M3.37,10.18c0,.14.09.28.13.42l-.32-.33h0l-.33.15c0-.12.09-.23.14-.34H3l-.33-.32.4.12c0-.12.07-.24.11-.35l.12.41h0L3.7,10l-.33.14h0Z"/><path class="cls-4" d="M3.37,12.18c0,.14.09.28.13.41l-.32-.32h0l-.33.14c0-.11.09-.22.14-.34H3l-.33-.33a2.64,2.64,0,0,0,.4.12c0-.11.07-.23.11-.35l.12.42h0l.41.1-.33.14h0Z"/><path class="cls-4" d="M3.37,4.21c0,.14.09.28.13.41L3.18,4.3h0l-.33.14c0-.11.09-.22.14-.34H3l-.33-.33a2.64,2.64,0,0,0,.4.12c0-.11.07-.23.11-.35L3.29,4h0l.41.1-.33.14h0Z"/><path class="cls-4" d="M1.27,5.46c0,.15.09.29.14.44l-.33-.38h0L.76,5.6l.13-.31h0Q.73,5.1.56,4.89l.4.2c0-.11.07-.22.11-.33l.12.44h0l.41.17-.33.08h0Z"/><path class="cls-4" d="M1.27,7.45c0,.15.09.3.14.44l-.33-.38h0L.76,7.6c0-.11.09-.21.13-.32h0L.56,6.89l.4.19.11-.33.12.44h0l.41.18-.33.08Z"/><path class="cls-4" d="M1.27,9.45c0,.15.09.29.14.44l-.33-.38h0l-.32.09.13-.31h0L.56,8.88l.4.2.11-.33.12.44h0l.41.17-.33.09Z"/><path class="cls-4" d="M1.27,11.44c0,.15.09.3.14.45l-.33-.39h0l-.32.09c0-.11.09-.21.13-.32h0l-.33-.39.4.2c0-.11.07-.23.11-.34l.12.44h0l.41.18-.33.08Z"/><path class="cls-4" d="M1.27,3.47c0,.15.09.3.14.45l-.33-.39h0l-.32.09c0-.11.09-.21.13-.32h0L.56,2.91l.4.2c0-.12.07-.23.11-.34l.12.44h0l.41.18-.33.08Z"/><path class="cls-6" d="M34.25,8.75v7h0v7C22.86,16.51,11.48,29,.12,22.75V1.89c11.36,6.26,22.74-6.24,34.12,0V8.74Z"/><path class="cls-7" d="M34.25,8.75v7h0v7C22.86,16.51,11.48,29,.12,22.75V1.89c11.36,6.26,22.74-6.24,34.12,0V8.74Z"/><g class="cls-8"><path class="cls-5" d="M34.29,1.83V23h0C22.87,16.66,11.45,29.35,0,23V1.86C11.45,8.19,22.87-4.51,34.29,1.83Z"/><path class="cls-9" d="M34.29,20.8V23h0a14.28,14.28,0,0,0-3.57-1.4,32.33,32.33,0,0,0-10.51-5.91l-1.05-.37-1.25-.43-.41-.15-1.27-.42-.47-.17L15.37,14l-.8-.28-.26-.1-.38-.14c-1.25-.46-2.49-1-3.74-1.55-.56-.27-1.12-.56-1.68-.86A30.19,30.19,0,0,1,0,4.07V1.86l0,0a.46.46,0,0,0,.07.07A14.07,14.07,0,0,0,3.6,3.26a32.26,32.26,0,0,0,10.71,6l1.06.38.28.1,1.68.57.17.06.64.22,1,.35.17.06.88.31.86.32c.77.3,1.53.61,2.3,1,.56.25,1.12.52,1.68.8A29.78,29.78,0,0,1,34.29,20.8Z"/><path class="cls-10" d="M34.3,22.94V23A14.1,14.1,0,0,0,32,22a31.44,31.44,0,0,0-11.8-7.08c-.34-.13-.67-.25-1-.36l0,0-1-.35L17.53,14l-1.12-.38-1-.36-.15-.05-.65-.23-.26-.09c-.94-.34-1.88-.71-2.83-1.12-.56-.24-1.12-.49-1.67-.77A29.83,29.83,0,0,1,0,3.27V1.81l0,0a.46.46,0,0,0,.07.07,30.06,30.06,0,0,0,12,8.65c.56.23,1.12.44,1.68.65l.45.17,1.06.37.39.14.65.22,1.18.41,1.57.53.17.06.57.21.31.11,1.37.52A30.27,30.27,0,0,1,34.3,22.94Z"/><path class="cls-9" d="M34.29,2.25V4.46a16.6,16.6,0,0,0-7.81,3c-.56.36-1.12.75-1.68,1.16-1.24.91-2.49,1.92-3.73,3l-.86.74-.88.77-.17.16c-.14.11-.27.23-.4.35l-.62.55-.64.57-.42.38-1.71,1.53-1.06.93c-3.35,2.92-6.7,5.57-10,7A14.49,14.49,0,0,1,0,23V21.24c3.31-.21,6.61-2,9.91-4.49.56-.42,1.12-.86,1.68-1.31.77-.62,1.54-1.27,2.31-1.94l.38-.33.26-.23.8-.7.39-.35,1.74-1.55.17-.16,1.49-1.32.18-.17.87-.76C23.94,4.69,27.67,1.81,31.4.61A14.51,14.51,0,0,1,34,1.69Z"/><path class="cls-10" d="M34.21,2.31c-3.74.27-7.47,2.56-11.2,5.54L21.33,9.23l-1.12,1c-.3.25-.59.51-.88.77l-.17.15c-.53.46-1.05.93-1.57,1.4l-1.18,1.06-.65.57-.39.35-.08.07-1,.86-.7.61C9.34,19.72,5.07,22.84.8,23.43L0,23V22a11.43,11.43,0,0,0,2.84-.56,27.23,27.23,0,0,0,8.36-4.93q.84-.67,1.68-1.38c.47-.4.94-.8,1.4-1.21l.26-.22.65-.57.15-.14,1-.92,1.73-1.55L19,9.83l.21-.18,1.05-.92.42-.37c4-3.46,8-6.44,12.05-7.3.4.16.8.35,1.19.55l.42.22c0,.16,0,.32,0,.47Z"/><path class="cls-4" d="M34.31,15.1C22.87,8.73,11.44,21.47,0,15.1V9.29c11.44,6.37,22.87-6.37,34.31,0Z"/><path class="cls-10" d="M34.31,14.06C22.87,7.69,11.44,20.43,0,14.06V10.33c11.44,6.36,22.87-6.37,34.31,0Z"/><path class="cls-11" d="M19.16,1.3V22.46l-3.79,1V2.34C16.63,2,17.89,1.63,19.16,1.3Z"/><path class="cls-4" d="M19.15,14.55l1.05-.27v7.91c-2,.5-3.93,1.09-5.89,1.59V15.87l1-.28V9.78l-1,.28V2.62c2-.51,3.93-1.1,5.89-1.6V8.47l-1.05.27Z"/><path class="cls-10" d="M19.17,1.29V22.46c-1.28.34-2.56.71-3.83,1.05V2.35C16.61,2,17.89,1.63,19.17,1.29Z"/></g></g></g></g></svg>