<svg xmlns="http://www.w3.org/2000/svg" xmlns:xlink="http://www.w3.org/1999/xlink" viewBox="0 0 33.24 24.64"><defs><style>.cls-1{isolation:isolate;}.cls-2{fill:#fff;}.cls-3{fill:#db2e2e;}.cls-4{mix-blend-mode:multiply;}.cls-4,.cls-5{fill:url(#linear-gradient);}.cls-5{opacity:0.25;mix-blend-mode:overlay;}</style><linearGradient id="linear-gradient" y1="12.23" x2="33.24" y2="12.23" gradientUnits="userSpaceOnUse"><stop offset="0" stop-color="#fff"/><stop offset="0.13" stop-color="#f7f7f7"/><stop offset="0.34" stop-color="#e0e0e1"/><stop offset="0.54" stop-color="#c4c5c6"/><stop offset="0.57" stop-color="#c1c2c3"/><stop offset="0.69" stop-color="#bebfc0"/><stop offset="0.91" stop-color="#fff"/></linearGradient></defs><title>ja</title><g class="cls-1"><g id="Calque_2" data-name="Calque 2"><g id="Capa_1" data-name="Capa 1"><path class="cls-2" d="M33.23,22.83c-11.08-6.26-22.15,6.26-33.23,0V2C11.08,8.23,22.15-4.28,33.23,2Z"/><path class="cls-3" d="M24.32,10.69c0,4.21-3.45,8.1-7.71,9.42s-7.7-1.69-7.7-6S12.36,6,16.61,4.7,24.32,6.38,24.32,10.69Z"/><path class="cls-4" d="M33.24,8.66v7h0v7c-11.08-6.23-22.16,6.26-33.23,0V1.8c11.07,6.26,22.15-6.24,33.23,0V8.65Z"/><path class="cls-5" d="M33.24,8.66v7h0v7c-11.08-6.23-22.16,6.26-33.23,0V1.8c11.07,6.26,22.15-6.24,33.23,0V8.65Z"/></g></g></g></svg>