<svg xmlns="http://www.w3.org/2000/svg" xmlns:xlink="http://www.w3.org/1999/xlink" viewBox="0 0 33.37 24.67"><defs><style>.cls-1{isolation:isolate;}.cls-2{fill:#f42525;}.cls-3{fill:#fff;}.cls-4{mix-blend-mode:multiply;}.cls-4,.cls-5{fill:url(#linear-gradient);}.cls-5{opacity:0.25;mix-blend-mode:overlay;}</style><linearGradient id="linear-gradient" y1="12.44" x2="33.24" y2="12.44" gradientUnits="userSpaceOnUse"><stop offset="0" stop-color="#fff"/><stop offset="0.13" stop-color="#f7f7f7"/><stop offset="0.34" stop-color="#e0e0e1"/><stop offset="0.54" stop-color="#c4c5c6"/><stop offset="0.57" stop-color="#c1c2c3"/><stop offset="0.69" stop-color="#bebfc0"/><stop offset="0.91" stop-color="#fff"/></linearGradient></defs><title>ch</title><g class="cls-1"><g id="Calque_2" data-name="Calque 2"><g id="Capa_1" data-name="Capa 1"><path class="cls-2" d="M33.37,22.66c-11.09-6.25-22.18,6.26-33.27,0V1.81c11.09,6.25,22.18-6.26,33.27,0Z"/><path class="cls-3" d="M6.94,9.49c.3.86.61,1.7.91,2.54-.72-.5-1.44-1-2.17-1.65h0a19.76,19.76,0,0,1-2.16,1.23c.3-.77.6-1.56.91-2.35l0,0h0C3.68,8.6,2.94,7.9,2.2,7.13a13.18,13.18,0,0,0,2.68.68c.25-.82.49-1.65.74-2.48.27.88.55,1.76.83,2.62h0a20.46,20.46,0,0,0,2.71-.1C8.42,8.44,7.67,9,6.92,9.48h0Z"/><path class="cls-3" d="M12.9,11.32l.15-.57c.06.16.12.32.17.48l-.15.53Z"/><path class="cls-3" d="M13.22,11.23l.56-.14-.46.43-.51.11Z"/><path class="cls-3" d="M13.32,11.52l.19.48-.44-.22-.17-.45Z"/><path class="cls-3" d="M12.91,11.31l-.56.13.46.2.52-.13Z"/><path class="cls-3" d="M12.81,11.64c-.06.19-.13.38-.19.57l.44-.43.17-.53Z"/><path class="cls-3" d="M10.4,14.45l.3-.52v.55c-.09.16-.19.32-.29.48C10.42,14.79,10.41,14.62,10.4,14.45Z"/><path class="cls-3" d="M10.71,14.48l.53.06-.52.26-.49-.07Z"/><path class="cls-3" d="M10.72,14.81l0,.54L10.42,15l0-.51C10.51,14.57,10.61,14.69,10.72,14.81Z"/><path class="cls-3" d="M10.41,14.44l-.53-.07.35.37.49,0Z"/><path class="cls-3" d="M10.22,14.74c-.1.17-.21.33-.32.5l.52-.27c.09-.16.19-.31.29-.47Z"/><path class="cls-3" d="M13.56,7.91,14,7.45,13.83,8l-.4.42C13.47,8.27,13.51,8.09,13.56,7.91Z"/><path class="cls-3" d="M13.83,8l.46.19-.55.14-.42-.19Z"/><path class="cls-3" d="M13.74,8.36c0,.19-.09.38-.14.57l-.18-.47c0-.18.09-.36.13-.53C13.62,8.07,13.68,8.21,13.74,8.36Z"/><path class="cls-3" d="M13.57,7.91l-.46-.19.21.45.43.17Z"/><path class="cls-3" d="M13.31,8.18l-.44.43.55-.16.4-.41Z"/><path class="cls-3" d="M12,5.23l.3-.53c0,.18,0,.37,0,.55L12,5.74C12,5.57,12,5.4,12,5.23Z"/><path class="cls-3" d="M12.31,5.25l.53,0-.53.28-.49-.05Z"/><path class="cls-3" d="M12.31,5.58l0,.54L12,5.75V5.24C12.1,5.35,12.21,5.46,12.31,5.58Z"/><path class="cls-3" d="M12,5.23l-.52-.06.34.36.5,0Z"/><path class="cls-3" d="M11.82,5.53,11.49,6,12,5.75c.1-.16.2-.32.29-.48Z"/><path class="cls-4" d="M33.24,8.87v7h0v7c-11.08-6.23-22.16,6.26-33.23,0V2C11.07,8.27,22.15-4.23,33.23,2V8.86Z"/><path class="cls-5" d="M33.24,8.87v7h0v7c-11.08-6.23-22.16,6.26-33.23,0V2C11.07,8.27,22.15-4.23,33.23,2V8.86Z"/></g></g></g></svg>