<svg xmlns="http://www.w3.org/2000/svg" xmlns:xlink="http://www.w3.org/1999/xlink" viewBox="0 0 33.27 24.63"><defs><style>.cls-1{isolation:isolate;}.cls-2{fill:#28292b;}.cls-3{fill:#fff915;}.cls-4{fill:#dd3131;}.cls-5{mix-blend-mode:multiply;}.cls-5,.cls-6{fill:url(#linear-gradient);}.cls-6{opacity:0.25;mix-blend-mode:overlay;}</style><linearGradient id="linear-gradient" y1="12.4" x2="33.24" y2="12.4" gradientUnits="userSpaceOnUse"><stop offset="0" stop-color="#fff"/><stop offset="0.13" stop-color="#f7f7f7"/><stop offset="0.34" stop-color="#e0e0e1"/><stop offset="0.54" stop-color="#c4c5c6"/><stop offset="0.57" stop-color="#c1c2c3"/><stop offset="0.69" stop-color="#bebfc0"/><stop offset="0.91" stop-color="#fff"/></linearGradient></defs><title>de</title><g class="cls-1"><g id="Calque_2" data-name="Calque 2"><g id="Capa_1" data-name="Capa 1"><path class="cls-2" d="M33.25,22.65c-11.08-6.23-22.16,6.27-33.23,0V1.81c11.07,6.25,22.15-6.25,33.23,0Z"/><path class="cls-3" d="M33.25,22.65c-11.08-6.23-22.16,6.27-33.23,0V11.89c11.07,6.25,22.15-6.25,33.23,0Z"/><path class="cls-4" d="M0,15.68c11.08,6.26,22.16-6.25,33.25,0v-7C22.18,2.41,11.1,14.92,0,8.66Z"/><path class="cls-5" d="M33.24,8.83v7h0v7c-11.08-6.23-22.16,6.26-33.23,0V2C11.07,8.23,22.15-4.27,33.23,2V8.82Z"/><path class="cls-6" d="M33.24,8.83v7h0v7c-11.08-6.23-22.16,6.26-33.23,0V2C11.07,8.23,22.15-4.27,33.23,2V8.82Z"/></g></g></g></svg>