<svg xmlns="http://www.w3.org/2000/svg" xmlns:xlink="http://www.w3.org/1999/xlink" viewBox="0 0 33.32 24.5"><defs><style>.cls-1{isolation:isolate;}.cls-2{fill:#2e4593;}.cls-3{fill:#f42525;}.cls-4{fill:#fff;}.cls-5{mix-blend-mode:multiply;}.cls-5,.cls-6{fill:url(#linear-gradient);}.cls-6{opacity:0.25;mix-blend-mode:overlay;}</style><linearGradient id="linear-gradient" y1="12.26" x2="33.24" y2="12.26" gradientUnits="userSpaceOnUse"><stop offset="0" stop-color="#fff"/><stop offset="0.13" stop-color="#f7f7f7"/><stop offset="0.34" stop-color="#e0e0e1"/><stop offset="0.54" stop-color="#c4c5c6"/><stop offset="0.57" stop-color="#c1c2c3"/><stop offset="0.69" stop-color="#bebfc0"/><stop offset="0.91" stop-color="#fff"/></linearGradient></defs><title>fr</title><g class="cls-1"><g id="Calque_2" data-name="Calque 2"><g id="Capa_1" data-name="Capa 1"><path class="cls-2" d="M33.32,22.66c-11.09-6.25-22.18,6.26-33.27,0V1.81c11.09,6.25,22.18-6.26,33.27,0Z"/><path class="cls-3" d="M33.32,22.66c-5.33-3-10.67-1.67-16-.18V1.63C22.65.13,28-1.2,33.32,1.81Z"/><path class="cls-4" d="M22.35,21.17c-3.75.69-7.49,2.11-11.24,2.81V3.23c3.75-.7,7.49-2.12,11.24-2.81Z"/><path class="cls-5" d="M33.24,8.69v7a0,0,0,0,1,0,0v7c-11.08-6.23-22.16,6.26-33.23,0V1.83c11.07,6.26,22.15-6.24,33.23,0V8.68Z"/><path class="cls-6" d="M33.24,8.69v7a0,0,0,0,1,0,0v7c-11.08-6.23-22.16,6.26-33.23,0V1.83c11.07,6.26,22.15-6.24,33.23,0V8.68Z"/></g></g></g></svg>