<svg id="svg" version="1.1" xmlns="http://www.w3.org/2000/svg" xmlns:xlink="http://www.w3.org/1999/xlink" width="400" height="399.47780678851177" viewBox="0, 0, 400,399.47780678851177"><g id="svgg"><path id="path0" d="M0.198 199.800 C 0.198 309.800,0.244 354.800,0.300 299.800 C 0.356 244.800,0.356 154.800,0.300 99.800 C 0.244 44.800,0.198 89.800,0.198 199.800 M399.799 199.800 C 399.799 309.800,399.844 354.800,399.900 299.800 C 399.956 244.800,399.956 154.800,399.900 99.800 C 399.844 44.800,399.799 89.800,399.799 199.800 M334.773 144.356 L 334.665 153.247 333.666 153.137 C 332.845 153.047,319.854 148.934,317.645 148.065 C 317.129 147.862,316.762 148.598,315.720 151.929 C 315.012 154.192,314.096 156.974,313.685 158.112 L 312.938 160.179 314.011 160.569 C 314.602 160.784,318.412 162.156,322.478 163.619 C 326.543 165.082,329.991 166.403,330.138 166.556 C 330.286 166.708,328.075 170.044,325.224 173.969 C 322.374 177.894,320.096 181.260,320.161 181.448 C 320.304 181.861,329.666 189.011,330.063 189.011 C 330.216 189.011,331.358 187.617,332.601 185.914 C 336.787 180.176,340.656 175.280,341.122 175.131 C 341.377 175.049,343.666 177.734,346.208 181.098 C 353.107 190.224,352.602 189.680,353.547 188.994 C 353.989 188.674,356.187 187.079,358.431 185.450 C 360.676 183.822,362.595 182.272,362.697 182.008 C 362.798 181.743,360.537 178.226,357.672 174.192 C 354.808 170.158,352.595 166.730,352.755 166.575 C 352.916 166.421,355.834 165.358,359.241 164.213 C 367.245 161.524,369.630 160.637,369.630 160.346 C 369.630 160.216,368.792 157.517,367.767 154.348 L 365.903 148.587 364.470 148.852 C 363.682 148.998,362.048 149.440,360.839 149.835 C 356.488 151.255,350.230 153.042,349.251 153.143 L 348.252 153.247 348.144 144.356 L 348.037 135.465 341.459 135.465 L 334.880 135.465 334.773 144.356 M182.752 136.763 C 182.581 137.038,182.307 142.118,182.143 148.052 C 181.773 161.456,181.114 182.371,180.637 195.804 C 180.439 201.409,180.150 211.891,179.996 219.099 L 179.715 232.204 182.065 231.138 C 202.874 221.698,230.481 220.270,244.159 227.926 C 258.827 236.136,264.697 258.155,256.580 274.516 C 244.422 299.020,207.186 297.693,195.140 272.325 C 194.357 270.678,193.597 269.331,193.449 269.331 C 193.202 269.331,179.952 281.608,174.462 286.924 L 172.102 289.210 173.036 290.559 C 176.830 296.034,182.817 302.407,186.613 305.010 C 195.106 310.833,200.872 313.426,209.397 315.255 C 249.446 323.847,285.493 300.984,289.692 264.326 C 294.747 220.204,262.405 192.845,214.186 200.452 C 212.098 200.782,210.053 201.084,209.641 201.125 C 208.913 201.197,208.611 195.285,209.197 192.408 C 209.286 191.968,209.553 185.584,209.790 178.222 C 210.027 170.859,210.307 164.432,210.412 163.938 L 210.604 163.041 246.461 162.939 L 282.318 162.837 282.423 149.550 L 282.528 136.264 232.796 136.264 C 193.443 136.264,182.999 136.368,182.752 136.763 M94.831 190.220 C 82.640 191.761,70.628 198.281,63.520 207.214 C 60.366 211.177,60.340 211.131,60.340 201.598 L 60.340 193.407 46.354 193.407 L 32.368 193.407 32.368 282.917 L 32.368 372.428 46.951 372.428 L 61.534 372.428 61.636 334.599 C 61.703 309.811,61.876 296.730,62.138 296.654 C 62.358 296.590,63.347 297.629,64.336 298.963 C 73.772 311.690,92.447 318.178,111.289 315.275 C 140.972 310.703,160.604 285.665,160.629 252.348 C 160.659 213.275,131.351 185.603,94.831 190.220 M102.098 214.192 C 136.693 219.018,141.164 277.333,107.880 289.617 C 82.263 299.072,56.866 275.362,61.323 246.154 C 63.244 233.566,69.810 224.001,81.119 217.320 C 86.055 214.404,94.543 213.138,102.098 214.192 " stroke="none" fill="#fcfafb" fill-rule="evenodd"></path><path id="path1" d="M0.799 199.401 L 0.799 398.801 200.000 398.801 L 399.201 398.801 399.201 199.401 L 399.201 0.000 200.000 0.000 L 0.799 0.000 0.799 199.401 M348.759 143.996 C 348.859 152.478,348.916 153.106,349.558 152.833 C 350.329 152.505,354.190 151.307,357.842 150.263 C 359.161 149.885,360.509 149.462,360.839 149.321 C 362.015 148.818,365.839 147.950,366.129 148.120 C 366.291 148.215,366.709 149.317,367.059 150.570 C 367.409 151.822,367.951 153.414,368.263 154.106 C 368.576 154.799,368.831 155.568,368.831 155.815 C 368.831 156.062,369.177 157.249,369.601 158.453 C 370.562 161.187,371.782 160.491,357.645 165.275 C 355.339 166.056,353.391 166.755,353.317 166.830 C 353.242 166.904,354.230 168.441,355.512 170.245 C 357.884 173.583,358.763 174.833,361.948 179.396 L 363.743 181.968 362.591 182.926 C 361.957 183.453,360.989 184.183,360.439 184.549 C 359.890 184.915,358.056 186.249,356.365 187.512 C 352.417 190.462,352.698 190.538,348.925 185.514 C 343.590 178.412,341.406 175.624,341.178 175.624 C 341.058 175.624,339.264 177.872,337.189 180.619 C 332.405 186.954,330.415 189.573,330.252 189.751 C 330.142 189.870,327.482 188.030,326.873 187.415 C 326.763 187.304,325.235 186.135,323.477 184.817 C 321.718 183.500,320.042 182.196,319.752 181.921 C 319.145 181.344,318.964 181.637,324.920 173.570 C 329.737 167.045,329.937 166.692,328.988 166.403 C 328.594 166.282,327.373 165.850,326.274 165.441 C 325.175 165.033,323.826 164.575,323.277 164.423 C 322.727 164.271,321.738 163.919,321.079 163.640 C 320.420 163.361,318.442 162.637,316.683 162.031 C 312.110 160.456,311.997 159.980,314.691 153.646 C 314.971 152.987,315.331 151.818,315.490 151.049 C 315.897 149.088,316.849 147.356,317.410 147.559 C 317.669 147.653,320.040 148.403,322.677 149.226 C 325.315 150.049,327.832 150.867,328.272 151.044 C 328.711 151.221,330.195 151.713,331.568 152.138 L 334.066 152.909 334.066 144.054 C 334.066 139.183,334.190 135.074,334.341 134.923 C 334.493 134.771,337.774 134.696,341.634 134.756 L 348.651 134.865 348.759 143.996 M283.222 149.550 L 283.327 163.037 247.195 163.037 L 211.064 163.037 210.839 166.733 C 210.618 170.367,209.906 185.896,209.502 195.904 C 209.389 198.706,209.385 200.999,209.493 200.999 C 209.601 200.999,210.423 200.740,211.318 200.424 C 214.969 199.137,232.421 198.513,240.160 199.394 C 255.179 201.103,269.740 208.465,278.532 218.794 C 284.465 225.763,287.818 233.244,290.167 244.755 C 290.704 247.390,290.715 262.080,290.182 265.135 C 288.798 273.067,287.365 277.722,284.517 283.547 C 278.608 295.630,270.330 303.947,257.849 310.342 C 256.039 311.269,252.803 312.602,250.656 313.305 C 248.510 314.008,246.394 314.734,245.954 314.919 C 241.169 316.928,222.832 318.155,215.784 316.938 C 214.575 316.729,212.418 316.356,210.989 316.110 C 197.165 313.722,184.737 306.217,175.342 294.583 C 171.052 289.269,171.049 289.333,175.828 284.912 C 178.028 282.877,180.693 280.382,181.750 279.367 C 187.361 273.984,193.176 268.731,193.524 268.731 C 193.965 268.731,193.977 268.753,196.015 272.898 C 202.002 285.076,212.187 291.105,226.773 291.105 C 243.179 291.105,253.138 284.141,258.198 269.131 C 259.615 264.927,259.612 250.600,258.193 246.354 C 256.551 241.439,254.043 237.078,250.961 233.779 C 241.114 223.238,217.638 220.211,196.318 226.733 C 195.266 227.055,192.787 227.812,190.809 228.415 C 188.831 229.017,186.943 229.652,186.613 229.825 C 185.519 230.399,180.833 232.238,179.924 232.450 L 179.028 232.659 179.268 223.922 C 179.400 219.117,179.654 211.139,179.832 206.194 C 180.010 201.249,180.432 186.773,180.769 174.026 C 181.105 161.279,181.569 148.511,181.800 145.654 C 182.030 142.797,182.219 139.425,182.218 138.160 L 182.218 135.861 232.667 135.962 L 283.117 136.064 283.222 149.550 M111.489 189.808 C 120.946 191.648,124.826 193.029,131.668 196.989 C 147.753 206.297,157.302 221.491,160.683 243.157 C 161.213 246.554,160.920 262.905,160.293 264.935 C 160.055 265.704,159.608 267.592,159.299 269.131 C 154.466 293.203,135.440 312.136,112.488 315.715 C 99.364 317.762,85.761 315.413,75.131 309.266 C 70.922 306.832,65.949 302.296,63.580 298.730 L 62.537 297.161 62.338 334.894 L 62.138 372.627 46.953 372.627 L 31.768 372.627 31.667 283.159 C 31.593 216.869,31.684 193.549,32.020 193.144 C 32.391 192.697,35.028 192.616,46.507 192.702 L 60.539 192.807 60.648 201.129 C 60.707 205.707,60.908 209.393,61.094 209.321 C 61.281 209.250,62.564 207.780,63.946 206.056 C 70.208 198.245,79.498 192.932,91.309 190.408 C 93.067 190.032,94.685 189.668,94.905 189.599 C 95.825 189.310,109.837 189.487,111.489 189.808 M91.470 214.357 C 91.343 214.484,90.176 214.784,88.876 215.023 C 85.784 215.591,81.821 217.296,78.397 219.531 C 75.807 221.222,69.131 227.454,69.131 228.182 C 69.131 228.365,68.887 228.758,68.589 229.056 C 62.380 235.265,59.116 257.146,63.147 265.534 C 63.358 265.974,63.809 267.140,64.148 268.126 C 71.591 289.724,99.060 298.081,116.498 284.053 C 123.124 278.722,126.976 271.900,129.551 260.939 C 130.097 258.611,130.098 246.090,129.552 243.756 C 128.220 238.068,127.626 236.393,125.378 231.974 C 120.979 223.328,113.417 217.228,104.489 215.124 C 101.756 214.480,91.926 213.901,91.470 214.357 " stroke="none" fill="#ec1c5c" fill-rule="evenodd"></path><path id="path2" d="M334.741 135.322 C 334.590 135.474,334.466 139.509,334.466 144.289 C 334.466 149.826,334.317 153.054,334.056 153.183 C 333.831 153.295,333.876 153.340,334.156 153.284 C 334.546 153.205,334.690 151.113,334.773 144.323 L 334.880 135.465 341.459 135.465 L 348.037 135.465 348.144 144.323 C 348.235 151.795,348.345 153.206,348.851 153.344 C 349.287 153.463,349.316 153.412,348.959 153.159 C 348.602 152.905,348.438 150.419,348.360 144.037 L 348.252 135.265 341.634 135.156 C 337.995 135.095,334.893 135.170,334.741 135.322 M182.218 137.263 C 182.218 137.812,182.287 138.262,182.371 138.262 C 182.455 138.262,182.610 137.812,182.715 137.263 C 182.820 136.713,182.751 136.264,182.562 136.264 C 182.373 136.264,182.218 136.713,182.218 137.263 M282.517 149.531 C 282.407 156.938,282.455 162.860,282.623 162.692 C 282.791 162.524,282.881 156.464,282.822 149.225 L 282.717 136.064 282.517 149.531 M181.942 149.251 C 181.944 150.569,182.019 151.061,182.108 150.342 C 182.197 149.624,182.195 148.545,182.104 147.945 C 182.013 147.344,181.940 147.932,181.942 149.251 M313.731 157.087 C 313.485 157.794,313.353 158.441,313.439 158.527 C 313.524 158.612,313.795 158.104,314.042 157.398 C 314.288 156.692,314.419 156.044,314.334 155.959 C 314.248 155.873,313.977 156.381,313.731 157.087 M181.568 163.636 C 181.569 166.054,181.635 166.991,181.714 165.720 C 181.794 164.448,181.793 162.470,181.713 161.324 C 181.632 160.178,181.567 161.219,181.568 163.636 M210.339 168.032 C 210.340 170.450,210.406 171.387,210.486 170.115 C 210.565 168.844,210.564 166.865,210.484 165.720 C 210.403 164.574,210.338 165.614,210.339 168.032 M181.170 176.224 C 181.170 178.751,181.235 179.785,181.314 178.521 C 181.394 177.258,181.394 175.190,181.314 173.926 C 181.235 172.662,181.170 173.696,181.170 176.224 M209.925 175.425 C 209.925 177.073,209.995 177.747,210.081 176.923 C 210.168 176.099,210.168 174.750,210.081 173.926 C 209.995 173.102,209.925 173.776,209.925 175.425 M322.078 177.822 C 321.608 178.482,321.314 179.021,321.424 179.021 C 321.534 179.021,322.008 178.482,322.478 177.822 C 322.947 177.163,323.241 176.623,323.131 176.623 C 323.021 176.623,322.547 177.163,322.078 177.822 M209.499 185.415 C 209.499 186.404,209.577 186.808,209.673 186.314 C 209.768 185.819,209.768 185.010,209.673 184.515 C 209.577 184.021,209.499 184.426,209.499 185.415 M322.877 183.962 C 322.877 184.071,323.417 184.545,324.076 185.015 C 324.735 185.484,325.275 185.779,325.275 185.669 C 325.275 185.559,324.735 185.085,324.076 184.615 C 323.417 184.146,322.877 183.852,322.877 183.962 M180.743 186.813 C 180.745 188.132,180.820 188.623,180.909 187.905 C 180.998 187.187,180.996 186.108,180.905 185.507 C 180.814 184.907,180.741 185.495,180.743 186.813 M357.043 186.449 L 355.844 187.479 357.143 186.619 C 357.857 186.147,358.442 185.682,358.442 185.587 C 358.442 185.288,358.272 185.392,357.043 186.449 M351.240 188.200 C 351.705 188.852,352.289 189.513,352.539 189.667 C 352.788 189.821,352.489 189.287,351.873 188.480 C 350.537 186.729,350.034 186.506,351.240 188.200 M100.799 189.704 C 101.843 189.787,103.551 189.787,104.595 189.704 C 105.639 189.622,104.785 189.555,102.697 189.555 C 100.609 189.555,99.755 189.622,100.799 189.704 M95.604 190.086 C 95.989 190.186,96.618 190.186,97.003 190.086 C 97.388 189.985,97.073 189.903,96.304 189.903 C 95.534 189.903,95.220 189.985,95.604 190.086 M209.122 195.205 C 209.124 196.743,209.196 197.324,209.283 196.495 C 209.369 195.666,209.368 194.407,209.279 193.697 C 209.191 192.988,209.120 193.666,209.122 195.205 M32.155 193.501 C 32.049 193.779,32.009 234.196,32.066 283.317 L 32.170 372.627 32.269 283.017 L 32.368 193.407 46.346 193.407 L 60.323 193.407 60.444 201.698 L 60.565 209.990 60.552 201.598 L 60.539 193.207 46.443 193.102 C 35.380 193.019,32.305 193.105,32.155 193.501 M180.344 199.600 C 180.346 200.919,180.420 201.410,180.509 200.692 C 180.598 199.974,180.596 198.895,180.505 198.295 C 180.414 197.694,180.341 198.282,180.344 199.600 M224.675 199.287 C 225.280 199.379,226.269 199.379,226.873 199.287 C 227.478 199.196,226.983 199.121,225.774 199.121 C 224.565 199.121,224.071 199.196,224.675 199.287 M232.673 199.288 C 233.280 199.380,234.179 199.377,234.671 199.282 C 235.162 199.187,234.665 199.112,233.566 199.115 C 232.468 199.118,232.065 199.196,232.673 199.288 M218.681 199.687 C 219.286 199.778,220.275 199.778,220.879 199.687 C 221.484 199.595,220.989 199.520,219.780 199.520 C 218.571 199.520,218.077 199.595,218.681 199.687 M237.662 199.683 C 238.157 199.778,238.966 199.778,239.461 199.683 C 239.955 199.587,239.550 199.509,238.561 199.509 C 237.572 199.509,237.168 199.587,237.662 199.683 M66.918 203.097 L 64.935 205.195 67.033 203.212 C 68.187 202.121,69.131 201.177,69.131 201.114 C 69.131 200.816,68.761 201.147,66.918 203.097 M143.041 206.394 C 147.188 210.866,147.845 211.497,145.957 209.191 C 145.057 208.092,143.365 206.294,142.198 205.195 C 140.711 203.794,140.963 204.153,143.041 206.394 M179.948 216.184 C 179.948 217.612,180.021 218.197,180.109 217.483 C 180.198 216.768,180.198 215.599,180.109 214.885 C 180.021 214.171,179.948 214.755,179.948 216.184 M275.524 216.184 C 276.383 217.063,277.175 217.782,277.285 217.782 C 277.395 217.782,276.783 217.063,275.924 216.184 C 275.066 215.305,274.273 214.585,274.163 214.585 C 274.054 214.585,274.666 215.305,275.524 216.184 M179.575 227.373 C 179.575 230.120,179.638 231.244,179.716 229.870 C 179.794 228.497,179.794 226.249,179.716 224.875 C 179.638 223.501,179.575 224.625,179.575 227.373 M212.288 223.252 C 212.672 223.353,213.302 223.353,213.686 223.252 C 214.071 223.152,213.756 223.070,212.987 223.070 C 212.218 223.070,211.903 223.152,212.288 223.252 M226.673 223.252 C 227.058 223.353,227.687 223.353,228.072 223.252 C 228.457 223.152,228.142 223.070,227.373 223.070 C 226.603 223.070,226.289 223.152,226.673 223.252 M188.012 228.785 C 187.013 229.267,186.979 229.322,187.812 229.119 C 188.944 228.842,190.217 228.193,189.610 228.202 C 189.391 228.205,188.671 228.468,188.012 228.785 M250.749 233.367 C 251.832 234.466,252.807 235.365,252.917 235.365 C 253.027 235.365,252.231 234.466,251.149 233.367 C 250.066 232.268,249.091 231.369,248.981 231.369 C 248.871 231.369,249.667 232.268,250.749 233.367 M288.180 238.162 C 288.200 239.200,288.829 240.906,288.843 239.960 C 288.850 239.520,288.700 238.801,288.511 238.362 C 288.301 237.872,288.173 237.795,288.180 238.162 M130.371 247.952 C 130.375 248.831,130.457 249.144,130.552 248.647 C 130.648 248.150,130.644 247.430,130.544 247.048 C 130.444 246.666,130.366 247.073,130.371 247.952 M160.789 252.348 C 160.790 254.765,160.856 255.703,160.935 254.431 C 161.015 253.159,161.014 251.181,160.933 250.035 C 160.853 248.890,160.788 249.930,160.789 252.348 M60.840 250.350 C 60.844 251.229,60.926 251.541,61.022 251.044 C 61.117 250.547,61.114 249.828,61.014 249.446 C 60.914 249.064,60.836 249.471,60.840 250.350 M290.271 254.945 C 290.271 258.352,290.332 259.745,290.407 258.042 C 290.482 256.339,290.482 253.551,290.407 251.848 C 290.332 250.145,290.271 251.538,290.271 254.945 M259.893 257.942 C 259.894 260.579,259.958 261.606,260.037 260.224 C 260.115 258.842,260.114 256.684,260.035 255.429 C 259.956 254.174,259.892 255.305,259.893 257.942 M60.832 255.345 C 60.832 256.114,60.914 256.429,61.015 256.044 C 61.115 255.659,61.115 255.030,61.015 254.645 C 60.914 254.261,60.832 254.575,60.832 255.345 M130.371 256.743 C 130.375 257.622,130.457 257.935,130.552 257.438 C 130.648 256.941,130.644 256.222,130.544 255.839 C 130.444 255.457,130.366 255.864,130.371 256.743 M160.332 259.740 C 160.332 260.509,160.415 260.824,160.515 260.440 C 160.616 260.055,160.616 259.426,160.515 259.041 C 160.415 258.656,160.332 258.971,160.332 259.740 M191.787 270.430 L 190.410 271.928 191.874 270.584 C 192.777 269.755,193.527 269.358,193.833 269.547 C 194.153 269.745,194.228 269.690,194.044 269.392 C 193.598 268.670,193.262 268.824,191.787 270.430 M126.738 270.746 C 126.069 272.216,126.196 272.529,126.920 271.193 C 127.258 270.570,127.460 269.984,127.369 269.893 C 127.278 269.802,126.994 270.186,126.738 270.746 M185.999 275.824 L 184.016 277.922 186.114 275.939 C 187.268 274.848,188.212 273.904,188.212 273.841 C 188.212 273.543,187.842 273.875,185.999 275.824 M180.007 281.419 L 177.622 283.916 180.120 281.531 C 182.440 279.315,182.800 278.921,182.505 278.921 C 182.443 278.921,181.319 280.045,180.007 281.419 M201.598 281.718 C 202.903 283.037,204.061 284.116,204.171 284.116 C 204.281 284.116,203.303 283.037,201.998 281.718 C 200.693 280.400,199.536 279.321,199.426 279.321 C 199.316 279.321,200.293 280.400,201.598 281.718 M250.730 282.617 L 249.151 284.316 250.849 282.736 C 252.429 281.267,252.731 280.919,252.429 280.919 C 252.363 280.919,251.599 281.683,250.730 282.617 M173.611 287.413 L 171.628 289.510 173.726 287.528 C 174.880 286.437,175.824 285.493,175.824 285.430 C 175.824 285.131,175.454 285.463,173.611 287.413 M94.596 291.597 C 95.306 291.685,96.565 291.687,97.394 291.600 C 98.223 291.514,97.642 291.442,96.104 291.440 C 94.565 291.438,93.887 291.509,94.596 291.597 M220.280 291.584 C 220.664 291.685,221.294 291.685,221.678 291.584 C 222.063 291.484,221.748 291.401,220.979 291.401 C 220.210 291.401,219.895 291.484,220.280 291.584 M224.889 292.003 C 226.050 292.084,227.848 292.083,228.885 292.001 C 229.921 291.919,228.971 291.853,226.773 291.854 C 224.575 291.855,223.727 291.922,224.889 292.003 M61.723 297.003 C 61.618 297.278,61.579 314.406,61.637 335.065 L 61.742 372.627 61.840 334.799 C 61.917 304.983,62.044 296.927,62.438 296.768 C 62.829 296.610,62.826 296.560,62.425 296.535 C 62.143 296.518,61.827 296.728,61.723 297.003 M144.234 298.002 L 142.857 299.500 144.356 298.123 C 145.750 296.842,146.038 296.503,145.733 296.503 C 145.666 296.503,144.992 297.178,144.234 298.002 M273.114 299.001 L 270.729 301.499 273.227 299.113 C 274.600 297.802,275.724 296.678,275.724 296.616 C 275.724 296.321,275.330 296.681,273.114 299.001 M141.037 301.199 L 139.660 302.697 141.159 301.320 C 142.554 300.038,142.841 299.700,142.536 299.700 C 142.469 299.700,141.795 300.375,141.037 301.199 M67.333 302.897 C 68.191 303.776,68.983 304.496,69.093 304.496 C 69.203 304.496,68.591 303.776,67.732 302.897 C 66.874 302.018,66.082 301.299,65.972 301.299 C 65.862 301.299,66.474 302.018,67.333 302.897 M110.390 315.560 C 110.774 315.661,111.404 315.661,111.788 315.560 C 112.173 315.460,111.858 315.377,111.089 315.377 C 110.320 315.377,110.005 315.460,110.390 315.560 M240.360 315.684 C 239.341 316.122,240.392 316.122,241.758 315.684 C 242.561 315.427,242.601 315.362,241.958 315.353 C 241.518 315.346,240.799 315.495,240.360 315.684 M223.477 317.179 C 224.960 317.256,227.388 317.256,228.871 317.179 C 230.355 317.103,229.141 317.040,226.174 317.040 C 223.207 317.040,221.993 317.103,223.477 317.179 M100.233 399.500 C 155.250 399.556,245.161 399.556,300.033 399.500 C 354.905 399.445,309.890 399.399,200.000 399.399 C 90.110 399.399,45.215 399.445,100.233 399.500 " stroke="none" fill="#f48cac" fill-rule="evenodd"></path><path id="path3" d="M181.139 169.830 C 181.139 171.039,181.214 171.533,181.305 170.929 C 181.397 170.325,181.397 169.336,181.305 168.731 C 181.214 168.127,181.139 168.621,181.139 169.830 M209.891 179.620 C 209.895 180.500,209.977 180.812,210.073 180.315 C 210.168 179.818,210.165 179.099,210.065 178.717 C 209.965 178.335,209.887 178.741,209.891 179.620 M180.739 182.617 C 180.739 183.826,180.814 184.321,180.906 183.716 C 180.997 183.112,180.997 182.123,180.906 181.518 C 180.814 180.914,180.739 181.409,180.739 182.617 M209.483 188.212 C 209.483 188.981,209.566 189.296,209.666 188.911 C 209.767 188.526,209.767 187.897,209.666 187.512 C 209.566 187.128,209.483 187.443,209.483 188.212 M179.940 211.788 C 179.940 212.997,180.015 213.492,180.106 212.887 C 180.198 212.283,180.198 211.294,180.106 210.689 C 180.015 210.085,179.940 210.579,179.940 211.788 M95.205 214.072 C 95.809 214.164,96.798 214.164,97.403 214.072 C 98.007 213.981,97.512 213.906,96.304 213.906 C 95.095 213.906,94.600 213.981,95.205 214.072 M179.540 220.579 C 179.540 221.788,179.615 222.283,179.707 221.678 C 179.798 221.074,179.798 220.085,179.707 219.481 C 179.615 218.876,179.540 219.371,179.540 220.579 M72.502 223.876 L 71.329 225.175 72.627 224.001 C 73.838 222.907,74.110 222.577,73.801 222.577 C 73.732 222.577,73.148 223.162,72.502 223.876 M130.407 252.348 C 130.408 254.106,130.478 254.775,130.563 253.836 C 130.647 252.896,130.646 251.457,130.560 250.639 C 130.474 249.820,130.405 250.589,130.407 252.348 M60.832 252.947 C 60.832 253.716,60.914 254.031,61.015 253.646 C 61.115 253.262,61.115 252.632,61.015 252.248 C 60.914 251.863,60.832 252.178,60.832 252.947 M71.129 280.245 C 71.129 280.314,71.713 280.898,72.428 281.544 L 73.726 282.717 72.553 281.419 C 71.459 280.208,71.129 279.936,71.129 280.245 M39.686 372.727 C 43.822 372.792,50.475 372.792,54.472 372.727 C 58.468 372.661,55.085 372.608,46.953 372.608 C 38.821 372.609,35.551 372.662,39.686 372.727 " stroke="none" fill="#f4739b" fill-rule="evenodd"></path><path id="path4" d="M0.599 199.600 L 0.599 399.001 200.000 399.001 L 399.401 399.001 399.401 199.500 L 399.402 -0.000 399.301 199.401 L 399.200 398.801 200.000 398.801 L 0.800 398.801 0.699 199.500 L 0.598 0.200 0.599 199.600 M334.249 135.165 C 334.139 135.451,334.102 139.546,334.166 144.266 L 334.282 152.847 334.374 143.956 L 334.466 135.065 341.451 135.065 L 348.437 135.065 348.555 143.956 L 348.674 152.847 348.663 143.856 L 348.651 134.865 341.549 134.756 C 336.018 134.671,334.404 134.761,334.249 135.165 M232.462 136.163 L 282.906 136.267 283.020 149.652 L 283.133 163.037 283.125 149.551 L 283.117 136.064 232.567 136.062 L 182.018 136.059 232.462 136.163 M181.938 144.655 C 181.938 145.864,182.013 146.359,182.104 145.754 C 182.196 145.150,182.196 144.161,182.104 143.556 C 182.013 142.952,181.938 143.447,181.938 144.655 M181.579 153.047 C 181.579 156.454,181.641 157.847,181.716 156.144 C 181.791 154.441,181.791 151.653,181.716 149.950 C 181.641 148.247,181.579 149.640,181.579 153.047 M181.167 163.836 C 181.167 166.144,181.233 167.088,181.314 165.934 C 181.394 164.780,181.394 162.892,181.314 161.738 C 181.233 160.584,181.167 161.528,181.167 163.836 M210.690 165.235 C 210.695 166.114,210.776 166.426,210.872 165.929 C 210.968 165.432,210.964 164.713,210.864 164.331 C 210.764 163.949,210.686 164.356,210.690 165.235 M210.321 175.225 C 210.323 176.763,210.395 177.344,210.481 176.515 C 210.568 175.685,210.566 174.427,210.478 173.717 C 210.390 173.008,210.319 173.686,210.321 175.225 M180.739 178.621 C 180.739 179.830,180.814 180.325,180.906 179.720 C 180.997 179.116,180.997 178.127,180.906 177.522 C 180.814 176.918,180.739 177.413,180.739 178.621 M209.927 184.016 C 209.929 185.774,209.999 186.444,210.083 185.504 C 210.168 184.564,210.167 183.125,210.081 182.307 C 209.995 181.489,209.926 182.258,209.927 184.016 M95.604 189.686 C 95.989 189.787,96.618 189.787,97.003 189.686 C 97.388 189.586,97.073 189.503,96.304 189.503 C 95.534 189.503,95.220 189.586,95.604 189.686 M209.491 190.809 C 209.496 191.688,209.578 192.001,209.673 191.504 C 209.769 191.007,209.765 190.287,209.665 189.905 C 209.565 189.523,209.487 189.930,209.491 190.809 M111.189 190.086 C 111.573 190.186,112.203 190.186,112.587 190.086 C 112.972 189.985,112.657 189.903,111.888 189.903 C 111.119 189.903,110.804 189.985,111.189 190.086 M32.048 193.087 C 31.503 193.632,31.324 372.229,31.868 372.566 C 32.033 372.668,32.168 332.353,32.168 282.979 L 32.168 193.207 46.416 193.207 C 54.252 193.207,60.580 193.072,60.478 192.907 C 60.146 192.371,32.590 192.545,32.048 193.087 M180.340 195.405 C 180.340 196.613,180.414 197.108,180.506 196.503 C 180.598 195.899,180.598 194.910,180.506 194.306 C 180.414 193.701,180.340 194.196,180.340 195.405 M179.981 203.796 C 179.981 207.203,180.042 208.596,180.117 206.893 C 180.192 205.190,180.192 202.403,180.117 200.699 C 180.042 198.996,179.981 200.390,179.981 203.796 M209.092 199.600 C 209.096 200.480,209.178 200.792,209.274 200.295 C 209.369 199.798,209.366 199.079,209.266 198.697 C 209.166 198.315,209.087 198.721,209.092 199.600 M211.988 200.200 C 210.970 200.637,212.020 200.637,213.387 200.200 C 214.190 199.943,214.229 199.878,213.586 199.868 C 213.147 199.862,212.428 200.011,211.988 200.200 M66.733 202.797 C 65.763 203.786,65.058 204.595,65.168 204.595 C 65.278 204.595,66.162 203.786,67.133 202.797 C 68.104 201.808,68.808 200.999,68.698 200.999 C 68.588 200.999,67.704 201.808,66.733 202.797 M142.857 205.794 C 143.716 206.673,144.508 207.393,144.618 207.393 C 144.728 207.393,144.115 206.673,143.257 205.794 C 142.398 204.915,141.606 204.196,141.496 204.196 C 141.386 204.196,141.999 204.915,142.857 205.794 M179.568 214.585 C 179.568 216.893,179.634 217.837,179.715 216.683 C 179.796 215.529,179.796 213.641,179.715 212.488 C 179.634 211.334,179.568 212.278,179.568 214.585 M118.282 222.303 C 118.282 222.372,118.866 222.956,119.580 223.602 L 120.879 224.775 119.705 223.477 C 118.611 222.266,118.282 221.994,118.282 222.303 M217.283 223.274 C 218.876 223.350,221.484 223.350,223.077 223.274 C 224.670 223.198,223.367 223.136,220.180 223.136 C 216.993 223.136,215.689 223.198,217.283 223.274 M212.288 223.652 C 212.672 223.753,213.302 223.753,213.686 223.652 C 214.071 223.552,213.756 223.469,212.987 223.469 C 212.218 223.469,211.903 223.552,212.288 223.652 M226.673 223.652 C 227.058 223.753,227.687 223.753,228.072 223.652 C 228.457 223.552,228.142 223.469,227.373 223.469 C 226.603 223.469,226.289 223.552,226.673 223.652 M179.145 229.171 C 179.147 230.490,179.222 230.981,179.311 230.263 C 179.400 229.544,179.398 228.465,179.307 227.865 C 179.215 227.265,179.143 227.852,179.145 229.171 M185.614 229.984 C 184.610 230.468,184.578 230.522,185.415 230.321 C 185.964 230.188,186.584 229.920,186.793 229.725 C 187.311 229.241,187.027 229.304,185.614 229.984 M160.332 242.158 C 160.332 242.927,160.415 243.242,160.515 242.857 C 160.616 242.473,160.616 241.843,160.515 241.459 C 160.415 241.074,160.332 241.389,160.332 242.158 M129.963 247.752 C 129.963 248.521,130.045 248.836,130.146 248.452 C 130.246 248.067,130.246 247.438,130.146 247.053 C 130.045 246.668,129.963 246.983,129.963 247.752 M290.649 254.945 C 290.649 256.813,290.718 257.577,290.802 256.643 C 290.886 255.709,290.886 254.181,290.802 253.247 C 290.718 252.313,290.649 253.077,290.649 254.945 M259.493 257.942 C 259.494 260.579,259.559 261.606,259.637 260.224 C 259.715 258.842,259.715 256.684,259.635 255.429 C 259.556 254.174,259.492 255.305,259.493 257.942 M160.732 259.740 C 160.732 260.509,160.814 260.824,160.915 260.440 C 161.015 260.055,161.015 259.426,160.915 259.041 C 160.814 258.656,160.732 258.971,160.732 259.740 M160.341 262.737 C 160.345 263.616,160.427 263.929,160.522 263.432 C 160.618 262.935,160.614 262.216,160.514 261.834 C 160.414 261.451,160.336 261.858,160.341 262.737 M192.178 269.630 L 191.209 270.729 192.340 269.730 C 193.447 268.752,193.483 268.748,194.038 269.507 C 194.350 269.934,194.605 270.104,194.605 269.887 C 194.605 269.448,193.788 268.531,193.396 268.531 C 193.259 268.531,192.710 269.026,192.178 269.630 M185.814 275.524 C 184.844 276.513,184.139 277.323,184.249 277.323 C 184.359 277.323,185.243 276.513,186.214 275.524 C 187.184 274.535,187.889 273.726,187.779 273.726 C 187.669 273.726,186.785 274.535,185.814 275.524 M121.653 278.790 C 121.038 279.597,120.738 280.131,120.988 279.976 C 121.499 279.660,123.229 277.323,122.952 277.323 C 122.853 277.323,122.269 277.983,121.653 278.790 M200.200 279.845 C 200.200 279.914,200.784 280.499,201.499 281.144 L 202.797 282.318 201.624 281.019 C 200.530 279.808,200.200 279.537,200.200 279.845 M178.796 282.218 L 177.622 283.516 178.921 282.343 C 180.132 281.249,180.403 280.919,180.095 280.919 C 180.026 280.919,179.442 281.503,178.796 282.218 M250.331 282.617 L 248.751 284.316 250.450 282.736 C 252.029 281.267,252.331 280.919,252.029 280.919 C 251.964 280.919,251.200 281.683,250.331 282.617 M173.208 287.413 L 171.628 289.111 173.327 287.531 C 174.906 286.062,175.209 285.714,174.906 285.714 C 174.841 285.714,174.077 286.479,173.208 287.413 M94.596 291.197 C 95.306 291.286,96.565 291.287,97.394 291.201 C 98.223 291.114,97.642 291.042,96.104 291.040 C 94.565 291.038,93.887 291.109,94.596 291.197 M224.889 291.604 C 226.050 291.685,227.848 291.684,228.885 291.602 C 229.921 291.520,228.971 291.454,226.773 291.455 C 224.575 291.456,223.727 291.523,224.889 291.604 M61.842 334.845 C 61.785 355.713,61.871 372.654,62.034 372.492 C 62.421 372.104,62.628 296.903,62.242 296.903 C 62.079 296.903,61.899 313.977,61.842 334.845 M144.234 298.402 L 142.857 299.900 144.356 298.523 C 145.750 297.241,146.038 296.903,145.733 296.903 C 145.666 296.903,144.992 297.577,144.234 298.402 M272.712 299.800 L 270.729 301.898 272.827 299.915 C 273.981 298.824,274.925 297.880,274.925 297.817 C 274.925 297.519,274.555 297.851,272.712 299.800 M67.333 303.297 C 68.415 304.396,69.391 305.295,69.500 305.295 C 69.610 305.295,68.815 304.396,67.732 303.297 C 66.650 302.198,65.674 301.299,65.565 301.299 C 65.455 301.299,66.250 302.198,67.333 303.297 M115.485 314.885 C 114.662 315.149,114.626 315.211,115.285 315.239 C 115.724 315.257,116.354 315.098,116.683 314.885 C 117.383 314.433,116.897 314.433,115.485 314.885 M100.599 316.377 C 101.533 316.461,103.062 316.461,103.996 316.377 C 104.930 316.292,104.166 316.224,102.298 316.224 C 100.430 316.224,99.665 316.292,100.599 316.377 M214.286 316.759 C 214.670 316.859,215.300 316.859,215.684 316.759 C 216.069 316.658,215.754 316.576,214.985 316.576 C 214.216 316.576,213.901 316.658,214.286 316.759 M233.467 317.159 C 233.851 317.259,234.481 317.259,234.865 317.159 C 235.250 317.058,234.935 316.976,234.166 316.976 C 233.397 316.976,233.082 317.058,233.467 317.159 M224.875 317.572 C 225.589 317.660,226.758 317.660,227.473 317.572 C 228.187 317.483,227.602 317.411,226.174 317.411 C 224.745 317.411,224.161 317.483,224.875 317.572 " stroke="none" fill="#f45484" fill-rule="evenodd"></path></g></svg>